<?xml version="1.0" encoding="UTF-8"?>
<svg width="800" height="400" xmlns="http://www.w3.org/2001/XMLSchema-instance">
    
    <!-- Título -->
    <text x="400" y="30" text-anchor="middle" font-family="Arial, sans-serif" font-size="18" font-weight="bold">
        Perfil Altimétrico: Ruta Gastronómica de Siero
    </text>
    
    <!-- Fondo del gráfico -->
    <rect x="50" y="50" width="700" height="300" 
          fill="#f8f9fa" stroke="#dee2e6" stroke-width="1"/>
    
    <!-- Líneas de cuadrícula horizontales (altitudes) -->
    <line x1="50" y1="350.0" x2="750" y2="350.0" 
          stroke="#dee2e6" stroke-width="0.5"/>
    <text x="45" y="354.0" text-anchor="end" font-family="Arial, sans-serif" font-size="10">
        182m
    </text>
    <line x1="50" y1="290.0000000000002" x2="750" y2="290.0000000000002" 
          stroke="#dee2e6" stroke-width="0.5"/>
    <text x="45" y="294.0000000000002" text-anchor="end" font-family="Arial, sans-serif" font-size="10">
        183m
    </text>
    <line x1="50" y1="230.00000000000043" x2="750" y2="230.00000000000043" 
          stroke="#dee2e6" stroke-width="0.5"/>
    <text x="45" y="234.00000000000043" text-anchor="end" font-family="Arial, sans-serif" font-size="10">
        185m
    </text>
    <line x1="50" y1="169.99999999999957" x2="750" y2="169.99999999999957" 
          stroke="#dee2e6" stroke-width="0.5"/>
    <text x="45" y="173.99999999999957" text-anchor="end" font-family="Arial, sans-serif" font-size="10">
        186m
    </text>
    <line x1="50" y1="109.99999999999977" x2="750" y2="109.99999999999977" 
          stroke="#dee2e6" stroke-width="0.5"/>
    <text x="45" y="113.99999999999977" text-anchor="end" font-family="Arial, sans-serif" font-size="10">
        188m
    </text>
    <line x1="50" y1="50.0" x2="750" y2="50.0" 
          stroke="#dee2e6" stroke-width="0.5"/>
    <text x="45" y="54.0" text-anchor="end" font-family="Arial, sans-serif" font-size="10">
        190m
    </text>

    <!-- Líneas de cuadrícula verticales (distancias) -->
    <line x1="50.0" y1="50" x2="50.0" y2="350" 
          stroke="#dee2e6" stroke-width="0.5"/>
    <text x="50.0" y="365" text-anchor="middle" font-family="Arial, sans-serif" font-size="10">
        0m
    </text>
    <line x1="190.0" y1="50" x2="190.0" y2="350" 
          stroke="#dee2e6" stroke-width="0.5"/>
    <text x="190.0" y="365" text-anchor="middle" font-family="Arial, sans-serif" font-size="10">
        510m
    </text>
    <line x1="330.0" y1="50" x2="330.0" y2="350" 
          stroke="#dee2e6" stroke-width="0.5"/>
    <text x="330.0" y="365" text-anchor="middle" font-family="Arial, sans-serif" font-size="10">
        1020m
    </text>
    <line x1="470.0" y1="50" x2="470.0" y2="350" 
          stroke="#dee2e6" stroke-width="0.5"/>
    <text x="470.0" y="365" text-anchor="middle" font-family="Arial, sans-serif" font-size="10">
        1530m
    </text>
    <line x1="610.0" y1="50" x2="610.0" y2="350" 
          stroke="#dee2e6" stroke-width="0.5"/>
    <text x="610.0" y="365" text-anchor="middle" font-family="Arial, sans-serif" font-size="10">
        2040m
    </text>
    <line x1="750.0" y1="50" x2="750.0" y2="350" 
          stroke="#dee2e6" stroke-width="0.5"/>
    <text x="750.0" y="365" text-anchor="middle" font-family="Arial, sans-serif" font-size="10">
        2550m
    </text>

    <!-- Perfil altimétrico -->
    <polyline points="50.0,312.5 50.0,312.5 118.62745098039215,275.0 242.15686274509804,200.0 420.5882352941176,350.0 750.0,50.0" 
              fill="none" stroke="#007bff" stroke-width="3"/>
    
    <!-- Área bajo la curva -->
    <polygon points="50,350 50.0,312.5 50.0,312.5 118.62745098039215,275.0 242.15686274509804,200.0 420.5882352941176,350.0 750.0,50.0 750,350" 
             fill="rgba(0, 123, 255, 0.3)" stroke="none"/>
    
    <!-- Puntos de hitos -->
    <circle cx="50.0" cy="312.5" r="4" fill="#28a745" stroke="white" stroke-width="2"/>
    <text x="50.0" y="302.5" text-anchor="middle" font-family="Arial, sans-serif" font-size="9" font-weight="bold">
        0
    </text>
    <circle cx="50.0" cy="312.5" r="4" fill="#dc3545" stroke="white" stroke-width="2"/>
    <text x="50.0" y="302.5" text-anchor="middle" font-family="Arial, sans-serif" font-size="9" font-weight="bold">
        H1
    </text>
    <circle cx="118.62745098039215" cy="275.0" r="4" fill="#dc3545" stroke="white" stroke-width="2"/>
    <text x="118.62745098039215" y="265.0" text-anchor="middle" font-family="Arial, sans-serif" font-size="9" font-weight="bold">
        H2
    </text>
    <circle cx="242.15686274509804" cy="200.0" r="4" fill="#dc3545" stroke="white" stroke-width="2"/>
    <text x="242.15686274509804" y="190.0" text-anchor="middle" font-family="Arial, sans-serif" font-size="9" font-weight="bold">
        H3
    </text>
    <circle cx="420.5882352941176" cy="350.0" r="4" fill="#dc3545" stroke="white" stroke-width="2"/>
    <text x="420.5882352941176" y="340.0" text-anchor="middle" font-family="Arial, sans-serif" font-size="9" font-weight="bold">
        H4
    </text>
    <circle cx="750.0" cy="50.0" r="4" fill="#dc3545" stroke="white" stroke-width="2"/>
    <text x="750.0" y="40.0" text-anchor="middle" font-family="Arial, sans-serif" font-size="9" font-weight="bold">
        H5
    </text>

    <!-- Etiquetas de ejes -->
    <text x="400" y="390" text-anchor="middle" font-family="Arial, sans-serif" font-size="12">
        Distancia (metros)
    </text>
    
    <text x="20" y="200" text-anchor="middle" font-family="Arial, sans-serif" font-size="12" 
          transform="rotate(-90, 20, 200)">
        Altitud (metros)
    </text>
    
    <!-- Información estadística -->
    <text x="50" y="370" font-family="Arial, sans-serif" font-size="10">
        Distancia total: 2550m | Altitud mín: 182m | Altitud máx: 190m | Desnivel: 8m
    </text>
    
</svg>